<svg xmlns="http://www.w3.org/2000/svg" viewBox="0 0 400 100.71"><defs><style>.cls-1{fill:#b3b3b3;}.cls-1,.cls-2{opacity:0.4;}.cls-2{fill:#a6abba;}.cls-3{fill:#9196a3;opacity:0.55;}.cls-4{fill:#596689;opacity:0.8;}.cls-5{fill:#273b60;}</style></defs><g id="Layer_2" data-name="Layer 2"><g id="Layer_1-2" data-name="Layer 1"><polygon class="cls-1" points="400 94.46 0 94.46 0 0 200 59.37 400 0 400 94.46"/><polygon class="cls-2" points="400 92.18 0 92.18 0 24.86 200 59.37 400 24.86 400 92.18"/><polygon class="cls-3" points="400 96.28 0 96.28 0 44.5 202.28 59.37 400 44.5 400 96.28"/><polygon class="cls-4" points="400 100.71 0 100.71 0 65.11 202.28 59.37 400 65.11 400 100.71"/><polygon class="cls-5" points="400 100.71 0 100.71 0 89.08 200 59.37 400 89.08 400 100.71"/></g></g></svg>