<svg xmlns="http://www.w3.org/2000/svg" viewBox="0 0 400 100"><defs><style>.cls-1{fill:#b3b3b3;}.cls-1,.cls-2{opacity:0.4;}.cls-2{fill:#a6abba;}.cls-3{fill:#9196a3;opacity:0.55;}.cls-4{fill:#596689;opacity:0.8;}.cls-5{fill:#273b60;}</style></defs><g id="Layer_2" data-name="Layer 2"><g id="Layer_1-2" data-name="Layer 1"><polygon class="cls-1" points="400 93.79 0 93.79 0 0 200 58.95 400 0 400 93.79"/><polygon class="cls-2" points="400 91.53 0 91.53 0 24.69 200 58.95 400 24.69 400 91.53"/><polygon class="cls-3" points="400 95.6 0 95.6 0 44.19 202.28 58.95 400 44.19 400 95.6"/><polygon class="cls-4" points="400 100 0 100 0 64.65 202.28 58.95 400 64.65 400 100"/><polygon class="cls-5" points="400 100 0 100 0 88.46 200 58.95 400 88.46 400 100"/></g></g></svg>